{
	"patcher" : 	{
		"fileversion" : 1,
		"appversion" : 		{
			"major" : 8,
			"minor" : 1,
			"revision" : 3,
			"architecture" : "x64",
			"modernui" : 1
		}
,
		"classnamespace" : "box",
		"rect" : [ 207.0, 136.0, 942.0, 756.0 ],
		"bglocked" : 0,
		"openinpresentation" : 0,
		"default_fontsize" : 12.0,
		"default_fontface" : 0,
		"default_fontname" : "Arial",
		"gridonopen" : 1,
		"gridsize" : [ 15.0, 15.0 ],
		"gridsnaponopen" : 1,
		"objectsnaponopen" : 1,
		"statusbarvisible" : 2,
		"toolbarvisible" : 1,
		"lefttoolbarpinned" : 0,
		"toptoolbarpinned" : 0,
		"righttoolbarpinned" : 0,
		"bottomtoolbarpinned" : 0,
		"toolbars_unpinned_last_save" : 0,
		"tallnewobj" : 0,
		"boxanimatetime" : 200,
		"enablehscroll" : 1,
		"enablevscroll" : 1,
		"devicewidth" : 0.0,
		"description" : "",
		"digest" : "",
		"tags" : "",
		"style" : "",
		"subpatcher_template" : "",
		"boxes" : [ 			{
				"box" : 				{
					"annotation" : "## Subdivide video input and scramble the pieces ##",
					"bgmode" : 1,
					"border" : 0,
					"clickthrough" : 0,
					"enablehscroll" : 0,
					"enablevscroll" : 0,
					"id" : "obj-11",
					"lockeddragscroll" : 0,
					"maxclass" : "bpatcher",
					"name" : "vz.scramblr.maxpat",
					"numinlets" : 6,
					"numoutlets" : 1,
					"offset" : [ 0.0, 0.0 ],
					"outlettype" : [ "" ],
					"patching_rect" : [ 164.800000965595245, 370.49999862909317, 228.0, 140.0 ],
					"prototypename" : "pixl",
					"varname" : "scramblr",
					"viewvisibility" : 1
				}

			}
, 			{
				"box" : 				{
					"id" : "obj-13",
					"maxclass" : "newobj",
					"numinlets" : 1,
					"numoutlets" : 3,
					"outlettype" : [ "", "bang", "" ],
					"patching_rect" : [ 160.800000905990601, 792.799997687339783, 179.0, 22.0 ],
					"text" : "jit.world candy @dim 1920 1080"
				}

			}
, 			{
				"box" : 				{
					"annotation" : "## Combine two videos using chromakeying ##",
					"bgmode" : 1,
					"border" : 0,
					"clickthrough" : 0,
					"enablehscroll" : 0,
					"enablevscroll" : 0,
					"id" : "obj-18",
					"lockeddragscroll" : 0,
					"maxclass" : "bpatcher",
					"name" : "vz.chromakeyr.maxpat",
					"numinlets" : 7,
					"numoutlets" : 4,
					"offset" : [ 0.0, 0.0 ],
					"outlettype" : [ "", "", "", "" ],
					"patching_rect" : [ 160.800000905990601, 630.199997782707214, 408.0, 146.0 ],
					"prototypename" : "pixl",
					"varname" : "chromakeyr",
					"viewvisibility" : 1
				}

			}
, 			{
				"box" : 				{
					"annotation" : "## VIZZIE \"drunkard's walk\" data generator ##",
					"bgmode" : 1,
					"border" : 0,
					"clickthrough" : 0,
					"enablehscroll" : 0,
					"enablevscroll" : 0,
					"id" : "obj-6",
					"lockeddragscroll" : 0,
					"maxclass" : "bpatcher",
					"name" : "vz.wandr.maxpat",
					"numinlets" : 3,
					"numoutlets" : 1,
					"offset" : [ 0.0, 0.0 ],
					"outlettype" : [ "" ],
					"patching_rect" : [ 2283.466707825660706, 796.666679173707962, 148.0, 112.0 ],
					"prototypename" : "pixl",
					"varname" : "wandr[1]",
					"viewvisibility" : 1
				}

			}
, 			{
				"box" : 				{
					"annotation" : "## Use functions to map R, G, and B video parts ##",
					"bgmode" : 1,
					"border" : 0,
					"clickthrough" : 0,
					"enablehscroll" : 0,
					"enablevscroll" : 0,
					"id" : "obj-2",
					"lockeddragscroll" : 0,
					"maxclass" : "bpatcher",
					"name" : "vz.mappr.maxpat",
					"numinlets" : 4,
					"numoutlets" : 1,
					"offset" : [ 0.0, 0.0 ],
					"outlettype" : [ "" ],
					"patching_rect" : [ 1683.300000905990601, 923.416679602056547, 388.0, 130.0 ],
					"prototypename" : "pixl",
					"varname" : "mappr",
					"viewvisibility" : 1
				}

			}
, 			{
				"box" : 				{
					"annotation" : "## VIZZIE \"drunkard's walk\" data generator ##",
					"bgmode" : 1,
					"border" : 0,
					"clickthrough" : 0,
					"enablehscroll" : 0,
					"enablevscroll" : 0,
					"id" : "obj-61",
					"lockeddragscroll" : 0,
					"maxclass" : "bpatcher",
					"name" : "vz.wandr.maxpat",
					"numinlets" : 3,
					"numoutlets" : 1,
					"offset" : [ 0.0, 0.0 ],
					"outlettype" : [ "" ],
					"patching_rect" : [ 2088.133347392082214, 661.666680961847305, 148.0, 112.0 ],
					"prototypename" : "pixl",
					"varname" : "wandr",
					"viewvisibility" : 1
				}

			}
, 			{
				"box" : 				{
					"annotation" : "## Video pattern generator ##",
					"bgmode" : 1,
					"border" : 0,
					"clickthrough" : 0,
					"enablehscroll" : 0,
					"enablevscroll" : 0,
					"id" : "obj-10",
					"lockeddragscroll" : 0,
					"maxclass" : "bpatcher",
					"name" : "vz.patternizr.maxpat",
					"numinlets" : 11,
					"numoutlets" : 1,
					"offset" : [ 0.0, 0.0 ],
					"outlettype" : [ "" ],
					"patching_rect" : [ 1742.299998998641968, 697.333346247673035, 250.0, 198.0 ],
					"prototypename" : "pixl",
					"varname" : "patternizr[1]",
					"viewvisibility" : 1
				}

			}
, 			{
				"box" : 				{
					"annotation" : "## View or monitor a video input ##",
					"bgmode" : 1,
					"border" : 0,
					"clickthrough" : 0,
					"enablehscroll" : 0,
					"enablevscroll" : 0,
					"id" : "obj-19",
					"lockeddragscroll" : 0,
					"maxclass" : "bpatcher",
					"name" : "vz.viewr.maxpat",
					"numinlets" : 1,
					"numoutlets" : 0,
					"offset" : [ 0.0, 0.0 ],
					"patching_rect" : [ 1690.300000905990601, 1106.000015497207642, 230.0, 208.0 ],
					"prototypename" : "pixl",
					"varname" : "viewr",
					"viewvisibility" : 1
				}

			}
, 			{
				"box" : 				{
					"bgcolor" : [ 1.0, 1.0, 1.0, 1.0 ],
					"bubble" : 1,
					"bubbleside" : 0,
					"fontface" : 0,
					"id" : "obj-32",
					"linecount" : 6,
					"maxclass" : "comment",
					"numinlets" : 1,
					"numoutlets" : 0,
					"patching_rect" : [ 1107.800000905990601, 571.99999874830246, 336.0, 106.0 ],
					"text" : "This jit.mo.join is used to join multiple jit.mo signals together. The first argument (currently set to 3) is the number of jit.mo signals that need to be joined, the second argument (currently set to 5) sets the dimension (dim) of jit.mo.join, defining how many copies of the same object jit.gl.multiple will create. This value should be the same for all glparams."
				}

			}
, 			{
				"box" : 				{
					"bgcolor" : [ 1.0, 1.0, 1.0, 1.0 ],
					"fontface" : 0,
					"id" : "obj-56",
					"linecount" : 4,
					"maxclass" : "comment",
					"numinlets" : 1,
					"numoutlets" : 0,
					"patching_rect" : [ 2344.800000905990601, 344.49999874830246, 330.0, 60.0 ],
					"text" : "This jit.mo.perlin is a function that generates \"structured randomness\" and controls the third glparam in jit.gl.multiple, which is scale. Since we want to scale x, y, z by equal amounts the same value is used for each inlet in jit.mo.join"
				}

			}
, 			{
				"box" : 				{
					"bgcolor" : [ 1.0, 1.0, 1.0, 1.0 ],
					"fontface" : 0,
					"id" : "obj-53",
					"linecount" : 3,
					"maxclass" : "comment",
					"numinlets" : 1,
					"numoutlets" : 0,
					"patching_rect" : [ 1953.300000905990601, 344.49999874830246, 362.0, 47.0 ],
					"text" : "These three jit.mo functions control the second parameter in jit.gl.multiple, which is rotatexyz. These three functions control the rotation around the x, y, and z axis for each object."
				}

			}
, 			{
				"box" : 				{
					"bgcolor" : [ 1.0, 1.0, 1.0, 1.0 ],
					"fontface" : 1,
					"id" : "obj-52",
					"linecount" : 2,
					"maxclass" : "comment",
					"numinlets" : 1,
					"numoutlets" : 0,
					"patching_rect" : [ 1646.800000905990601, 322.99999874830246, 269.5, 33.0 ],
					"text" : "dim sets the dimensions of each jit.mo.join\nwhich controls how many \"multiples\" we get"
				}

			}
, 			{
				"box" : 				{
					"bgcolor" : [ 1.0, 1.0, 1.0, 1.0 ],
					"fontface" : 0,
					"id" : "obj-51",
					"linecount" : 3,
					"maxclass" : "comment",
					"numinlets" : 1,
					"numoutlets" : 0,
					"patching_rect" : [ 1254.800000905990601, 344.49999874830246, 306.0, 47.0 ],
					"text" : "These three jit.mo functions control the first parameter in jit.gl.multiple, which is position. These three functions control the x, y, and z position for each object."
				}

			}
, 			{
				"box" : 				{
					"bgcolor" : [ 1.0, 1.0, 1.0, 1.0 ],
					"fontface" : 0,
					"id" : "obj-50",
					"linecount" : 4,
					"maxclass" : "comment",
					"numinlets" : 1,
					"numoutlets" : 0,
					"patching_rect" : [ 1254.800000905990601, 256.99999874830246, 1064.0, 60.0 ],
					"text" : "To make it easy to draw multiple OpenGL objects to jit.world we can use jit.gl.multiple which will duplicate the object that we connect it to and use the values we set for its glparameters to draw each one differently. jit.gl.multiple expects matrices of numbers to set the glparameters. We can use the jit.mo package to easily create these matrices. jit.mo can generate numbers based on mathematical functions. Depending on what kind of input the glparam in jit.gl.multiple expects, we can join multiple jit.mo functions together to get the right output. TRY CHANGING THE VALUES IN THE NUMBER BOXES IN THE ATTRUI OBJECTS BELOW TO SEE HOW THEY EFFECT THE OUTPUT"
				}

			}
, 			{
				"box" : 				{
					"id" : "obj-33",
					"maxclass" : "newobj",
					"numinlets" : 3,
					"numoutlets" : 2,
					"outlettype" : [ "jit_matrix", "" ],
					"patching_rect" : [ 2322.300000905990601, 571.99999874830246, 118.0, 22.0 ],
					"text" : "jit.mo.join 3 5"
				}

			}
, 			{
				"box" : 				{
					"id" : "obj-36",
					"maxclass" : "newobj",
					"numinlets" : 1,
					"numoutlets" : 2,
					"outlettype" : [ "jit_matrix", "" ],
					"patching_rect" : [ 2371.800000905990601, 538.49999874830246, 128.0, 22.0 ],
					"text" : "jit.mo.perlin @offset 1."
				}

			}
, 			{
				"box" : 				{
					"attr" : "speed",
					"id" : "obj-38",
					"maxclass" : "attrui",
					"numinlets" : 1,
					"numoutlets" : 1,
					"outlettype" : [ "" ],
					"patching_rect" : [ 2377.800000905990601, 463.99999874830246, 150.0, 22.0 ]
				}

			}
, 			{
				"box" : 				{
					"attr" : "scale",
					"id" : "obj-41",
					"maxclass" : "attrui",
					"numinlets" : 1,
					"numoutlets" : 1,
					"outlettype" : [ "" ],
					"patching_rect" : [ 2363.800000905990601, 436.99999874830246, 150.0, 22.0 ]
				}

			}
, 			{
				"box" : 				{
					"attr" : "freq",
					"id" : "obj-42",
					"maxclass" : "attrui",
					"numinlets" : 1,
					"numoutlets" : 1,
					"outlettype" : [ "" ],
					"patching_rect" : [ 2348.800000905990601, 409.99999874830246, 150.0, 22.0 ]
				}

			}
, 			{
				"box" : 				{
					"id" : "obj-85",
					"maxclass" : "newobj",
					"numinlets" : 1,
					"numoutlets" : 2,
					"outlettype" : [ "jit_matrix", "" ],
					"patching_rect" : [ 2151.300000905990601, 497.49999874830246, 62.0, 22.0 ],
					"text" : "jit.mo.saw"
				}

			}
, 			{
				"box" : 				{
					"attr" : "speed",
					"id" : "obj-86",
					"maxclass" : "attrui",
					"numinlets" : 1,
					"numoutlets" : 1,
					"outlettype" : [ "" ],
					"patching_rect" : [ 2165.300000905990601, 464.49999874830246, 150.0, 22.0 ]
				}

			}
, 			{
				"box" : 				{
					"attr" : "scale",
					"id" : "obj-87",
					"maxclass" : "attrui",
					"numinlets" : 1,
					"numoutlets" : 1,
					"outlettype" : [ "" ],
					"patching_rect" : [ 2151.300000905990601, 437.49999874830246, 150.0, 22.0 ]
				}

			}
, 			{
				"box" : 				{
					"attr" : "freq",
					"id" : "obj-88",
					"maxclass" : "attrui",
					"numinlets" : 1,
					"numoutlets" : 1,
					"outlettype" : [ "" ],
					"patching_rect" : [ 2139.300000905990601, 410.49999874830246, 150.0, 22.0 ]
				}

			}
, 			{
				"box" : 				{
					"id" : "obj-89",
					"maxclass" : "newobj",
					"numinlets" : 1,
					"numoutlets" : 2,
					"outlettype" : [ "jit_matrix", "" ],
					"patching_rect" : [ 1984.800000905990601, 497.49999874830246, 50.0, 22.0 ],
					"text" : "jit.mo.tri"
				}

			}
, 			{
				"box" : 				{
					"attr" : "speed",
					"id" : "obj-90",
					"maxclass" : "attrui",
					"numinlets" : 1,
					"numoutlets" : 1,
					"outlettype" : [ "" ],
					"patching_rect" : [ 1998.800000905990601, 464.49999874830246, 150.0, 22.0 ]
				}

			}
, 			{
				"box" : 				{
					"attr" : "scale",
					"id" : "obj-91",
					"maxclass" : "attrui",
					"numinlets" : 1,
					"numoutlets" : 1,
					"outlettype" : [ "" ],
					"patching_rect" : [ 1984.800000905990601, 437.49999874830246, 150.0, 22.0 ]
				}

			}
, 			{
				"box" : 				{
					"attr" : "freq",
					"id" : "obj-92",
					"maxclass" : "attrui",
					"numinlets" : 1,
					"numoutlets" : 1,
					"outlettype" : [ "" ],
					"patching_rect" : [ 1972.800000905990601, 410.49999874830246, 150.0, 22.0 ]
				}

			}
, 			{
				"box" : 				{
					"id" : "obj-93",
					"maxclass" : "newobj",
					"numinlets" : 3,
					"numoutlets" : 2,
					"outlettype" : [ "jit_matrix", "" ],
					"patching_rect" : [ 1818.300000905990601, 534.49999874830246, 352.0, 22.0 ],
					"text" : "jit.mo.join 3 5"
				}

			}
, 			{
				"box" : 				{
					"id" : "obj-94",
					"maxclass" : "newobj",
					"numinlets" : 1,
					"numoutlets" : 2,
					"outlettype" : [ "jit_matrix", "" ],
					"patching_rect" : [ 1818.300000905990601, 497.49999874830246, 56.0, 22.0 ],
					"text" : "jit.mo.sin"
				}

			}
, 			{
				"box" : 				{
					"attr" : "speed",
					"id" : "obj-95",
					"maxclass" : "attrui",
					"numinlets" : 1,
					"numoutlets" : 1,
					"outlettype" : [ "" ],
					"patching_rect" : [ 1832.300000905990601, 464.49999874830246, 150.0, 22.0 ]
				}

			}
, 			{
				"box" : 				{
					"attr" : "scale",
					"id" : "obj-96",
					"maxclass" : "attrui",
					"numinlets" : 1,
					"numoutlets" : 1,
					"outlettype" : [ "" ],
					"patching_rect" : [ 1818.300000905990601, 437.49999874830246, 150.0, 22.0 ]
				}

			}
, 			{
				"box" : 				{
					"attr" : "freq",
					"id" : "obj-97",
					"maxclass" : "attrui",
					"numinlets" : 1,
					"numoutlets" : 1,
					"outlettype" : [ "" ],
					"patching_rect" : [ 1806.300000905990601, 410.49999874830246, 150.0, 22.0 ]
				}

			}
, 			{
				"box" : 				{
					"id" : "obj-81",
					"maxclass" : "newobj",
					"numinlets" : 1,
					"numoutlets" : 2,
					"outlettype" : [ "jit_matrix", "" ],
					"patching_rect" : [ 1599.800000905990601, 497.49999874830246, 59.0, 22.0 ],
					"text" : "jit.mo.line"
				}

			}
, 			{
				"box" : 				{
					"id" : "obj-77",
					"maxclass" : "newobj",
					"numinlets" : 1,
					"numoutlets" : 2,
					"outlettype" : [ "jit_matrix", "" ],
					"patching_rect" : [ 1433.300000905990601, 497.49999874830246, 50.0, 22.0 ],
					"text" : "jit.mo.tri"
				}

			}
, 			{
				"box" : 				{
					"attr" : "speed",
					"id" : "obj-78",
					"maxclass" : "attrui",
					"numinlets" : 1,
					"numoutlets" : 1,
					"outlettype" : [ "" ],
					"patching_rect" : [ 1447.300000905990601, 464.49999874830246, 150.0, 22.0 ]
				}

			}
, 			{
				"box" : 				{
					"attr" : "scale",
					"id" : "obj-79",
					"maxclass" : "attrui",
					"numinlets" : 1,
					"numoutlets" : 1,
					"outlettype" : [ "" ],
					"patching_rect" : [ 1433.300000905990601, 437.49999874830246, 150.0, 22.0 ]
				}

			}
, 			{
				"box" : 				{
					"attr" : "freq",
					"id" : "obj-80",
					"maxclass" : "attrui",
					"numinlets" : 1,
					"numoutlets" : 1,
					"outlettype" : [ "" ],
					"patching_rect" : [ 1421.300000905990601, 410.49999874830246, 150.0, 22.0 ]
				}

			}
, 			{
				"box" : 				{
					"format" : 6,
					"id" : "obj-35",
					"maxclass" : "flonum",
					"numinlets" : 1,
					"numoutlets" : 2,
					"outlettype" : [ "", "bang" ],
					"parameter_enable" : 0,
					"patching_rect" : [ 1519.300000905990601, 600.49999874830246, 78.0, 22.0 ]
				}

			}
, 			{
				"box" : 				{
					"id" : "obj-64",
					"maxclass" : "newobj",
					"numinlets" : 3,
					"numoutlets" : 2,
					"outlettype" : [ "jit_matrix", "" ],
					"patching_rect" : [ 1266.800000905990601, 534.49999874830246, 352.0, 22.0 ],
					"text" : "jit.mo.join 3 5"
				}

			}
, 			{
				"box" : 				{
					"id" : "obj-65",
					"maxclass" : "newobj",
					"numinlets" : 1,
					"numoutlets" : 2,
					"outlettype" : [ "jit_matrix", "" ],
					"patching_rect" : [ 1266.800000905990601, 497.49999874830246, 56.0, 22.0 ],
					"text" : "jit.mo.sin"
				}

			}
, 			{
				"box" : 				{
					"attr" : "speed",
					"id" : "obj-66",
					"maxclass" : "attrui",
					"numinlets" : 1,
					"numoutlets" : 1,
					"outlettype" : [ "" ],
					"patching_rect" : [ 1280.800000905990601, 464.49999874830246, 150.0, 22.0 ]
				}

			}
, 			{
				"box" : 				{
					"fontname" : "Arial",
					"fontsize" : 13.0,
					"id" : "obj-60",
					"maxclass" : "newobj",
					"numinlets" : 3,
					"numoutlets" : 2,
					"outlettype" : [ "", "" ],
					"patching_rect" : [ 1765.300000905990601, 628.99999874830246, 349.0, 23.0 ],
					"text" : "jit.gl.multiple drawing 3 @glparams position rotatexyz scale"
				}

			}
, 			{
				"box" : 				{
					"attr" : "scale",
					"id" : "obj-68",
					"maxclass" : "attrui",
					"numinlets" : 1,
					"numoutlets" : 1,
					"outlettype" : [ "" ],
					"patching_rect" : [ 1266.800000905990601, 437.49999874830246, 150.0, 22.0 ]
				}

			}
, 			{
				"box" : 				{
					"attr" : "scale",
					"id" : "obj-45",
					"maxclass" : "attrui",
					"numinlets" : 1,
					"numoutlets" : 1,
					"outlettype" : [ "" ],
					"patching_rect" : [ 1519.300000905990601, 628.99999874830246, 234.0, 22.0 ]
				}

			}
, 			{
				"box" : 				{
					"attr" : "freq",
					"id" : "obj-67",
					"maxclass" : "attrui",
					"numinlets" : 1,
					"numoutlets" : 1,
					"outlettype" : [ "" ],
					"patching_rect" : [ 1254.800000905990601, 410.49999874830246, 150.0, 22.0 ]
				}

			}
, 			{
				"box" : 				{
					"attr" : "dim",
					"id" : "obj-98",
					"maxclass" : "attrui",
					"numinlets" : 1,
					"numoutlets" : 1,
					"outlettype" : [ "" ],
					"patching_rect" : [ 1646.800000905990601, 362.99999874830246, 150.0, 22.0 ]
				}

			}
, 			{
				"box" : 				{
					"attr" : "end",
					"id" : "obj-47",
					"maxclass" : "attrui",
					"numinlets" : 1,
					"numoutlets" : 1,
					"outlettype" : [ "" ],
					"patching_rect" : [ 1611.300000905990601, 464.49999874830246, 150.0, 22.0 ]
				}

			}
, 			{
				"box" : 				{
					"attr" : "start",
					"id" : "obj-48",
					"maxclass" : "attrui",
					"numinlets" : 1,
					"numoutlets" : 1,
					"outlettype" : [ "" ],
					"patching_rect" : [ 1593.800000905990601, 437.49999874830246, 150.0, 22.0 ]
				}

			}
, 			{
				"box" : 				{
					"attr" : "offset",
					"id" : "obj-49",
					"maxclass" : "attrui",
					"numinlets" : 1,
					"numoutlets" : 1,
					"outlettype" : [ "" ],
					"patching_rect" : [ 2400.800000905990601, 500.49999874830246, 150.0, 22.0 ]
				}

			}
, 			{
				"box" : 				{
					"bgcolor" : [ 1.0, 1.0, 1.0, 1.0 ],
					"bubble" : 1,
					"fontface" : 0,
					"id" : "obj-131",
					"maxclass" : "comment",
					"numinlets" : 1,
					"numoutlets" : 0,
					"patching_rect" : [ 361.166610777378082, 1032.416679779788865, 249.333334267139435, 24.0 ],
					"text" : "toggle this to turn the 3D Model on and off"
				}

			}
, 			{
				"box" : 				{
					"bgcolor" : [ 1.0, 1.0, 1.0, 1.0 ],
					"fontface" : 0,
					"id" : "obj-124",
					"linecount" : 6,
					"maxclass" : "comment",
					"numinlets" : 1,
					"numoutlets" : 0,
					"patching_rect" : [ 2001.966688692569733, 1079.250016789823576, 234.0, 87.0 ],
					"text" : "Click read to load an image file into the named jit.gl.texture object. Note that the @name parameter here is the same as the @texture paramter on jit.gl.model. Textures can be images, but also videos generated in any way in Max!"
				}

			}
, 			{
				"box" : 				{
					"bgcolor" : [ 1.0, 1.0, 1.0, 1.0 ],
					"fontface" : 0,
					"id" : "obj-125",
					"linecount" : 3,
					"maxclass" : "comment",
					"numinlets" : 1,
					"numoutlets" : 0,
					"patching_rect" : [ 254.833285450935364, 1161.416680783033371, 336.0, 47.0 ],
					"text" : "Any opengl object can have a texture on it, which can be added dynamically. By setting its \"texture\" parameter with the name of named instance of a jit.gl.texture "
				}

			}
, 			{
				"box" : 				{
					"id" : "obj-74",
					"maxclass" : "newobj",
					"numinlets" : 1,
					"numoutlets" : 2,
					"outlettype" : [ "jit_gl_texture", "" ],
					"patching_rect" : [ 1962.800022006034851, 1172.833346884637876, 196.0, 22.0 ],
					"text" : "jit.gl.texture drawing @name mytex"
				}

			}
, 			{
				"box" : 				{
					"bgcolor" : [ 1.0, 1.0, 1.0, 1.0 ],
					"fontface" : 0,
					"id" : "obj-59",
					"linecount" : 2,
					"maxclass" : "comment",
					"numinlets" : 1,
					"numoutlets" : 0,
					"patching_rect" : [ 291.999952137470245, 1078.583343129545256, 281.333333611488342, 33.0 ],
					"text" : "jit.gl.model is used to display 3D models created in other applications. Click read to read in a .obj file"
				}

			}
, 			{
				"box" : 				{
					"id" : "obj-57",
					"maxclass" : "message",
					"numinlets" : 2,
					"numoutlets" : 1,
					"outlettype" : [ "" ],
					"patching_rect" : [ 254.833285450935364, 1078.583343129545256, 33.0, 22.0 ],
					"text" : "read"
				}

			}
, 			{
				"box" : 				{
					"id" : "obj-55",
					"linecount" : 2,
					"maxclass" : "newobj",
					"numinlets" : 1,
					"numoutlets" : 2,
					"outlettype" : [ "jit_matrix", "" ],
					"patching_rect" : [ 157.499949216842651, 1372.000027805566788, 366.0, 35.0 ],
					"text" : "jit.gl.model drawing @lighting_enable 1 @smooth_shading 1 @texture mytex @tex_map 2"
				}

			}
, 			{
				"box" : 				{
					"attr" : "boundcalc",
					"id" : "obj-128",
					"maxclass" : "attrui",
					"numinlets" : 1,
					"numoutlets" : 1,
					"outlettype" : [ "" ],
					"patching_rect" : [ 717.499965906143188, 1229.99999579306791, 199.0, 22.0 ]
				}

			}
, 			{
				"box" : 				{
					"attr" : "tex_map",
					"id" : "obj-76",
					"maxclass" : "attrui",
					"numinlets" : 1,
					"numoutlets" : 1,
					"outlettype" : [ "" ],
					"patching_rect" : [ 280.166619539260864, 1229.99999579306791, 199.0, 22.0 ]
				}

			}
, 			{
				"box" : 				{
					"bgcolor" : [ 1.0, 1.0, 1.0, 1.0 ],
					"bubble" : 1,
					"bubbleside" : 2,
					"fontface" : 0,
					"id" : "obj-102",
					"linecount" : 2,
					"maxclass" : "comment",
					"numinlets" : 1,
					"numoutlets" : 0,
					"patching_rect" : [ 130.666670143604279, 39.0, 181.333335757255554, 52.0 ],
					"text" : "through this attrui object you can set the erase color attribute"
				}

			}
, 			{
				"box" : 				{
					"fontface" : 0,
					"fontname" : "Arial",
					"fontsize" : 12.0,
					"id" : "obj-34",
					"maxclass" : "jit.fpsgui",
					"numinlets" : 1,
					"numoutlets" : 2,
					"outlettype" : [ "", "" ],
					"patching_rect" : [ 145.833334624767303, 868.750017732381821, 80.0, 35.0 ]
				}

			}
, 			{
				"box" : 				{
					"bgcolor" : [ 1.0, 1.0, 1.0, 1.0 ],
					"bubble" : 1,
					"bubbleside" : 0,
					"fontface" : 0,
					"id" : "obj-30",
					"linecount" : 14,
					"maxclass" : "comment",
					"numinlets" : 1,
					"numoutlets" : 0,
					"patching_rect" : [ 365.733302593231201, -91.000006318092346, 201.0, 213.0 ],
					"text" : "jit.world needs a name, in this case it's named \"drawing\". Other OpenGL objects need to refer to this name to render into the world. Every jit.gl object in this patch has \"drawing\" as its drawto attribute so that they render to this jit.world\n\n@dim 1920 1080 sets the resolution of the output texture that is rendered to the window\n\n@erase_color sets the background color of the jit.world drawing"
				}

			}
, 			{
				"box" : 				{
					"bgcolor" : [ 1.0, 1.0, 1.0, 1.0 ],
					"bubble" : 1,
					"bubbleside" : 2,
					"fontface" : 0,
					"id" : "obj-23",
					"linecount" : 3,
					"maxclass" : "comment",
					"numinlets" : 1,
					"numoutlets" : 0,
					"patching_rect" : [ 14.0, 23.5, 100.0, 66.0 ],
					"text" : "click this toggle to start the jit.world object"
				}

			}
, 			{
				"box" : 				{
					"id" : "obj-5",
					"maxclass" : "toggle",
					"numinlets" : 1,
					"numoutlets" : 1,
					"outlettype" : [ "int" ],
					"parameter_enable" : 0,
					"patching_rect" : [ 52.0, 93.0, 24.0, 24.0 ]
				}

			}
, 			{
				"box" : 				{
					"bgcolor" : [ 0.0, 0.0, 0.0, 1.0 ],
					"id" : "obj-1",
					"maxclass" : "newobj",
					"numinlets" : 1,
					"numoutlets" : 3,
					"outlettype" : [ "", "bang", "" ],
					"patching_rect" : [ 98.666668057441711, 137.0, 482.0, 22.0 ],
					"text" : "jit.world drawing @dim 1920 1080 @erase_color 0. 0. 0. @visible 0 @output_texture 1 1."
				}

			}
, 			{
				"box" : 				{
					"attr" : "erase_color",
					"id" : "obj-4",
					"maxclass" : "attrui",
					"numinlets" : 1,
					"numoutlets" : 1,
					"outlettype" : [ "" ],
					"patching_rect" : [ 80.0, 93.0, 150.0, 22.0 ]
				}

			}
, 			{
				"box" : 				{
					"attr" : "enable",
					"id" : "obj-130",
					"maxclass" : "attrui",
					"numinlets" : 1,
					"numoutlets" : 1,
					"outlettype" : [ "" ],
					"patching_rect" : [ 207.666618347167969, 1032.416679779788865, 150.0, 22.0 ]
				}

			}
, 			{
				"box" : 				{
					"attr" : "lighting_enable",
					"id" : "obj-3",
					"maxclass" : "attrui",
					"numinlets" : 1,
					"numoutlets" : 1,
					"outlettype" : [ "" ],
					"patching_rect" : [ 524.333304166793823, 1229.99999579306791, 150.0, 22.0 ]
				}

			}
, 			{
				"box" : 				{
					"attr" : "scale",
					"id" : "obj-27",
					"maxclass" : "attrui",
					"numinlets" : 1,
					"numoutlets" : 1,
					"outlettype" : [ "" ],
					"patching_rect" : [ 725.499966549720739, 1351.333361143905677, 384.66667366027832, 22.0 ]
				}

			}
 ],
		"lines" : [ 			{
				"patchline" : 				{
					"destination" : [ "obj-11", 0 ],
					"source" : [ "obj-1", 0 ]
				}

			}
, 			{
				"patchline" : 				{
					"destination" : [ "obj-2", 0 ],
					"source" : [ "obj-10", 0 ]
				}

			}
, 			{
				"patchline" : 				{
					"destination" : [ "obj-18", 0 ],
					"source" : [ "obj-11", 0 ]
				}

			}
, 			{
				"patchline" : 				{
					"destination" : [ "obj-55", 0 ],
					"midpoints" : [ 726.999965906143188, 1305.458354294300079, 166.999949216842651, 1305.458354294300079 ],
					"source" : [ "obj-128", 0 ]
				}

			}
, 			{
				"patchline" : 				{
					"destination" : [ "obj-34", 0 ],
					"source" : [ "obj-13", 0 ]
				}

			}
, 			{
				"patchline" : 				{
					"destination" : [ "obj-55", 0 ],
					"source" : [ "obj-130", 0 ]
				}

			}
, 			{
				"patchline" : 				{
					"destination" : [ "obj-13", 0 ],
					"source" : [ "obj-18", 0 ]
				}

			}
, 			{
				"patchline" : 				{
					"destination" : [ "obj-18", 1 ],
					"order" : 1,
					"source" : [ "obj-2", 0 ]
				}

			}
, 			{
				"patchline" : 				{
					"destination" : [ "obj-19", 0 ],
					"order" : 2,
					"source" : [ "obj-2", 0 ]
				}

			}
, 			{
				"patchline" : 				{
					"destination" : [ "obj-74", 0 ],
					"order" : 0,
					"source" : [ "obj-2", 0 ]
				}

			}
, 			{
				"patchline" : 				{
					"destination" : [ "obj-55", 0 ],
					"source" : [ "obj-27", 0 ]
				}

			}
, 			{
				"patchline" : 				{
					"destination" : [ "obj-55", 0 ],
					"source" : [ "obj-3", 0 ]
				}

			}
, 			{
				"patchline" : 				{
					"destination" : [ "obj-60", 2 ],
					"midpoints" : [ 2331.800000905990601, 601.24999874830246, 2104.800000905990601, 601.24999874830246 ],
					"source" : [ "obj-33", 0 ]
				}

			}
, 			{
				"patchline" : 				{
					"destination" : [ "obj-45", 0 ],
					"source" : [ "obj-35", 0 ]
				}

			}
, 			{
				"patchline" : 				{
					"destination" : [ "obj-33", 2 ],
					"order" : 0,
					"source" : [ "obj-36", 0 ]
				}

			}
, 			{
				"patchline" : 				{
					"destination" : [ "obj-33", 1 ],
					"order" : 1,
					"source" : [ "obj-36", 0 ]
				}

			}
, 			{
				"patchline" : 				{
					"destination" : [ "obj-33", 0 ],
					"order" : 2,
					"source" : [ "obj-36", 0 ]
				}

			}
, 			{
				"patchline" : 				{
					"destination" : [ "obj-36", 0 ],
					"source" : [ "obj-38", 0 ]
				}

			}
, 			{
				"patchline" : 				{
					"destination" : [ "obj-1", 0 ],
					"source" : [ "obj-4", 0 ]
				}

			}
, 			{
				"patchline" : 				{
					"destination" : [ "obj-36", 0 ],
					"source" : [ "obj-41", 0 ]
				}

			}
, 			{
				"patchline" : 				{
					"destination" : [ "obj-36", 0 ],
					"source" : [ "obj-42", 0 ]
				}

			}
, 			{
				"patchline" : 				{
					"destination" : [ "obj-60", 0 ],
					"midpoints" : [ 1528.800000905990601, 661.99999874830246, 1761.050000905990601, 661.99999874830246, 1761.050000905990601, 621.99999874830246, 1774.800000905990601, 621.99999874830246 ],
					"source" : [ "obj-45", 0 ]
				}

			}
, 			{
				"patchline" : 				{
					"destination" : [ "obj-81", 0 ],
					"source" : [ "obj-47", 0 ]
				}

			}
, 			{
				"patchline" : 				{
					"destination" : [ "obj-81", 0 ],
					"source" : [ "obj-48", 0 ]
				}

			}
, 			{
				"patchline" : 				{
					"destination" : [ "obj-36", 0 ],
					"source" : [ "obj-49", 0 ]
				}

			}
, 			{
				"patchline" : 				{
					"destination" : [ "obj-1", 0 ],
					"order" : 1,
					"source" : [ "obj-5", 0 ]
				}

			}
, 			{
				"patchline" : 				{
					"destination" : [ "obj-13", 0 ],
					"order" : 0,
					"source" : [ "obj-5", 0 ]
				}

			}
, 			{
				"patchline" : 				{
					"destination" : [ "obj-55", 0 ],
					"source" : [ "obj-57", 0 ]
				}

			}
, 			{
				"patchline" : 				{
					"destination" : [ "obj-2", 1 ],
					"source" : [ "obj-6", 0 ]
				}

			}
, 			{
				"patchline" : 				{
					"destination" : [ "obj-55", 0 ],
					"source" : [ "obj-60", 0 ]
				}

			}
, 			{
				"patchline" : 				{
					"destination" : [ "obj-10", 8 ],
					"source" : [ "obj-61", 0 ]
				}

			}
, 			{
				"patchline" : 				{
					"destination" : [ "obj-60", 0 ],
					"midpoints" : [ 1276.300000905990601, 569.24999874830246, 1774.800000905990601, 569.24999874830246 ],
					"source" : [ "obj-64", 0 ]
				}

			}
, 			{
				"patchline" : 				{
					"destination" : [ "obj-64", 0 ],
					"source" : [ "obj-65", 0 ]
				}

			}
, 			{
				"patchline" : 				{
					"destination" : [ "obj-65", 0 ],
					"source" : [ "obj-66", 0 ]
				}

			}
, 			{
				"patchline" : 				{
					"destination" : [ "obj-65", 0 ],
					"source" : [ "obj-67", 0 ]
				}

			}
, 			{
				"patchline" : 				{
					"destination" : [ "obj-65", 0 ],
					"source" : [ "obj-68", 0 ]
				}

			}
, 			{
				"patchline" : 				{
					"destination" : [ "obj-55", 0 ],
					"midpoints" : [ 289.666619539260864, 1292.749995391756102, 245.333285450935364, 1292.749995391756102, 245.333285450935364, 1328.750003915220304, 166.999949216842651, 1328.750003915220304 ],
					"source" : [ "obj-76", 0 ]
				}

			}
, 			{
				"patchline" : 				{
					"destination" : [ "obj-64", 1 ],
					"source" : [ "obj-77", 0 ]
				}

			}
, 			{
				"patchline" : 				{
					"destination" : [ "obj-77", 0 ],
					"source" : [ "obj-78", 0 ]
				}

			}
, 			{
				"patchline" : 				{
					"destination" : [ "obj-77", 0 ],
					"source" : [ "obj-79", 0 ]
				}

			}
, 			{
				"patchline" : 				{
					"destination" : [ "obj-77", 0 ],
					"source" : [ "obj-80", 0 ]
				}

			}
, 			{
				"patchline" : 				{
					"destination" : [ "obj-64", 2 ],
					"source" : [ "obj-81", 0 ]
				}

			}
, 			{
				"patchline" : 				{
					"destination" : [ "obj-93", 2 ],
					"source" : [ "obj-85", 0 ]
				}

			}
, 			{
				"patchline" : 				{
					"destination" : [ "obj-85", 0 ],
					"source" : [ "obj-86", 0 ]
				}

			}
, 			{
				"patchline" : 				{
					"destination" : [ "obj-85", 0 ],
					"source" : [ "obj-87", 0 ]
				}

			}
, 			{
				"patchline" : 				{
					"destination" : [ "obj-85", 0 ],
					"source" : [ "obj-88", 0 ]
				}

			}
, 			{
				"patchline" : 				{
					"destination" : [ "obj-93", 1 ],
					"source" : [ "obj-89", 0 ]
				}

			}
, 			{
				"patchline" : 				{
					"destination" : [ "obj-89", 0 ],
					"source" : [ "obj-90", 0 ]
				}

			}
, 			{
				"patchline" : 				{
					"destination" : [ "obj-89", 0 ],
					"source" : [ "obj-91", 0 ]
				}

			}
, 			{
				"patchline" : 				{
					"destination" : [ "obj-89", 0 ],
					"source" : [ "obj-92", 0 ]
				}

			}
, 			{
				"patchline" : 				{
					"destination" : [ "obj-60", 1 ],
					"midpoints" : [ 1827.800000905990601, 571.24999874830246, 1939.800000905990601, 571.24999874830246 ],
					"source" : [ "obj-93", 0 ]
				}

			}
, 			{
				"patchline" : 				{
					"destination" : [ "obj-93", 0 ],
					"source" : [ "obj-94", 0 ]
				}

			}
, 			{
				"patchline" : 				{
					"destination" : [ "obj-94", 0 ],
					"source" : [ "obj-95", 0 ]
				}

			}
, 			{
				"patchline" : 				{
					"destination" : [ "obj-94", 0 ],
					"source" : [ "obj-96", 0 ]
				}

			}
, 			{
				"patchline" : 				{
					"destination" : [ "obj-94", 0 ],
					"source" : [ "obj-97", 0 ]
				}

			}
, 			{
				"patchline" : 				{
					"destination" : [ "obj-33", 0 ],
					"midpoints" : [ 1656.300000905990601, 400.74999874830246, 2331.800000905990601, 400.74999874830246 ],
					"order" : 0,
					"source" : [ "obj-98", 0 ]
				}

			}
, 			{
				"patchline" : 				{
					"destination" : [ "obj-64", 0 ],
					"midpoints" : [ 1656.300000905990601, 400.99999874830246, 1239.800000905990601, 400.99999874830246, 1239.800000905990601, 528.99999874830246, 1276.300000905990601, 528.99999874830246 ],
					"order" : 2,
					"source" : [ "obj-98", 0 ]
				}

			}
, 			{
				"patchline" : 				{
					"destination" : [ "obj-93", 0 ],
					"midpoints" : [ 1656.300000905990601, 424.99999874830246, 1784.800000905990601, 424.99999874830246, 1784.800000905990601, 525.99999874830246, 1827.800000905990601, 525.99999874830246 ],
					"order" : 1,
					"source" : [ "obj-98", 0 ]
				}

			}
 ],
		"parameters" : 		{
			"obj-19::obj-37" : [ "aspect_menu", "aspect_menu", 0 ],
			"obj-10::obj-44" : [ "z scale", "z scale", 0 ],
			"obj-11::obj-68" : [ "horizontal", "horizontal", 0 ],
			"obj-11::obj-13" : [ "pictctrl[52]", "pictctrl[1]", 0 ],
			"obj-61::obj-65" : [ "speed[10]", "speed", 0 ],
			"obj-61::obj-43" : [ "pictctrl[367]", "pictctrl[1]", 0 ],
			"obj-11::obj-110" : [ "pictctrl[53]", "pictctrl[1]", 0 ],
			"obj-10::obj-131" : [ "pictctrl[266]", "pictctrl[1]", 0 ],
			"obj-2::obj-26" : [ "umenu[16]", "umenu", 0 ],
			"obj-18::obj-9" : [ "tolerance", "tolerance", 0 ],
			"obj-10::obj-125" : [ "pictctrl[271]", "pictctrl[1]", 0 ],
			"obj-2::obj-21" : [ "FreqMode[23]", "FreqMode", 0 ],
			"obj-6::obj-49" : [ "pictctrl[32]", "pictctrl[1]", 0 ],
			"obj-10::obj-92" : [ "pictctrl[276]", "pictctrl[1]", 0 ],
			"obj-2::obj-23" : [ "FreqMode[24]", "FreqMode", 0 ],
			"obj-18::obj-32" : [ "pictctrl[36]", "pictctrl[1]", 0 ],
			"obj-10::obj-45" : [ "y scale", "y scale", 0 ],
			"obj-61::obj-49" : [ "pictctrl[369]", "pictctrl[1]", 0 ],
			"obj-2::obj-49" : [ "pictctrl[23]", "pictctrl", 0 ],
			"obj-6::obj-65" : [ "speed[1]", "speed", 0 ],
			"obj-18::obj-37" : [ "pictctrl[9]", "pictctrl[1]", 0 ],
			"obj-18::obj-45" : [ "swatch", "swatch", 0 ],
			"obj-18::obj-22" : [ "pictctrl[6]", "pictctrl[1]", 0 ],
			"obj-10::obj-27" : [ "live.toggle[5]", "live.toggle", 0 ],
			"obj-6::obj-48" : [ "FreqMode[1]", "FreqMode", 0 ],
			"obj-10::obj-127" : [ "pictctrl[269]", "pictctrl[1]", 0 ],
			"obj-61::obj-50" : [ "pictctrl[368]", "pictctrl[1]", 0 ],
			"obj-10::obj-124" : [ "pictctrl[274]", "pictctrl[1]", 0 ],
			"obj-11::obj-116" : [ "tilingprob", "tiling probatility", 0 ],
			"obj-18::obj-59" : [ "pictctrl[10]", "pictctrl[1]", 0 ],
			"obj-19::obj-20" : [ "letterbox_menu", "letterbox_menu", 0 ],
			"obj-18::obj-29" : [ "pictctrl[11]", "pictctrl[1]", 0 ],
			"obj-10::obj-46" : [ "x scale", "x scale", 0 ],
			"obj-61::obj-53" : [ "pictctrl[364]", "pictctrl[1]", 0 ],
			"obj-2::obj-12" : [ "pictctrl[22]", "pictctrl", 0 ],
			"obj-10::obj-278" : [ "textbutton[13]", "textbutton[1]", 0 ],
			"obj-6::obj-43" : [ "pictctrl[28]", "pictctrl[1]", 0 ],
			"obj-11::obj-100" : [ "pictctrl[56]", "pictctrl[1]", 0 ],
			"obj-10::obj-129" : [ "pictctrl[267]", "pictctrl[1]", 0 ],
			"obj-11::obj-14" : [ "range[3]", "range", 0 ],
			"obj-61::obj-48" : [ "FreqMode[26]", "FreqMode", 0 ],
			"obj-18::obj-11" : [ "range[4]", "range", 0 ],
			"obj-10::obj-126" : [ "pictctrl[272]", "pictctrl[1]", 0 ],
			"obj-11::obj-107" : [ "pictctrl[55]", "pictctrl[1]", 0 ],
			"obj-61::obj-44" : [ "textbutton[23]", "textbutton[1]", 0 ],
			"obj-6::obj-50" : [ "pictctrl[30]", "pictctrl[1]", 0 ],
			"obj-10::obj-40" : [ "table size", "table size", 0 ],
			"obj-2::obj-35" : [ "umenu[18]", "umenu", 0 ],
			"obj-11::obj-29" : [ "vertical", "vertical", 0 ],
			"obj-10::obj-67" : [ "z offset", "z offset", 0 ],
			"obj-6::obj-44" : [ "textbutton[1]", "textbutton[1]", 0 ],
			"obj-18::obj-15" : [ "pictctrl[3]", "pictctrl[1]", 0 ],
			"obj-61::obj-64" : [ "step size", "step size", 0 ],
			"obj-10::obj-39" : [ "seed", "seed", 0 ],
			"obj-10::obj-29" : [ "live.toggle[6]", "live.toggle", 0 ],
			"obj-10::obj-128" : [ "pictctrl[270]", "pictctrl[1]", 0 ],
			"obj-6::obj-64" : [ "step size[1]", "step size", 0 ],
			"obj-18::obj-28" : [ "pictctrl[7]", "pictctrl[1]", 0 ],
			"obj-2::obj-59" : [ "FreqMode[25]", "FreqMode", 0 ],
			"obj-18::obj-53" : [ "pictctrl[35]", "pictctrl[1]", 0 ],
			"obj-10::obj-122" : [ "pictctrl[275]", "pictctrl[1]", 0 ],
			"obj-18::obj-48" : [ "fade", "fade", 0 ],
			"obj-10::obj-55" : [ "y offest", "y offset", 0 ],
			"obj-10::obj-263" : [ "SpectraLFOShape[4]", "Shape", 0 ],
			"obj-2::obj-1" : [ "range[6]", "range", 0 ],
			"obj-10::obj-130" : [ "pictctrl[268]", "pictctrl[1]", 0 ],
			"obj-11::obj-115" : [ "pictctrl[54]", "pictctrl[1]", 0 ],
			"obj-11::obj-8" : [ "FreqMode[15]", "FreqMode", 0 ],
			"obj-10::obj-123" : [ "pictctrl[273]", "pictctrl[1]", 0 ],
			"obj-2::obj-53" : [ "pictctrl[21]", "pictctrl", 0 ],
			"obj-2::obj-28" : [ "umenu[17]", "umenu", 0 ],
			"obj-10::obj-121" : [ "x offset[1]", "x offset", 0 ],
			"obj-6::obj-53" : [ "pictctrl[31]", "pictctrl[1]", 0 ],
			"obj-11::obj-121" : [ "offsetprob", "offset probability", 0 ],
			"parameterbanks" : 			{

			}
,
			"parameter_overrides" : 			{
				"obj-6::obj-49" : 				{
					"parameter_longname" : "pictctrl[32]"
				}
,
				"obj-18::obj-32" : 				{
					"parameter_longname" : "pictctrl[36]"
				}
,
				"obj-6::obj-65" : 				{
					"parameter_longname" : "speed[1]"
				}
,
				"obj-6::obj-48" : 				{
					"parameter_longname" : "FreqMode[1]"
				}
,
				"obj-6::obj-43" : 				{
					"parameter_longname" : "pictctrl[28]"
				}
,
				"obj-6::obj-50" : 				{
					"parameter_longname" : "pictctrl[30]"
				}
,
				"obj-6::obj-64" : 				{
					"parameter_longname" : "step size[1]"
				}
,
				"obj-18::obj-53" : 				{
					"parameter_longname" : "pictctrl[35]"
				}
,
				"obj-6::obj-53" : 				{
					"parameter_longname" : "pictctrl[31]"
				}

			}

		}
,
		"dependency_cache" : [ 			{
				"name" : "vz.viewr.maxpat",
				"bootpath" : "C74:/packages/Vizzie/patchers",
				"type" : "JSON",
				"implicit" : 1
			}
, 			{
				"name" : "snapshot_UI.maxpat",
				"bootpath" : "C74:/packages/Vizzie/patchers",
				"type" : "JSON",
				"implicit" : 1
			}
, 			{
				"name" : "vzgl-disable.maxpat",
				"bootpath" : "C74:/packages/Vizzie/patchers",
				"type" : "JSON",
				"implicit" : 1
			}
, 			{
				"name" : "windowresize.js",
				"bootpath" : "C74:/packages/Vizzie/patchers",
				"type" : "TEXT",
				"implicit" : 1
			}
, 			{
				"name" : "vzgl-context.maxpat",
				"bootpath" : "C74:/packages/Vizzie/patchers",
				"type" : "JSON",
				"implicit" : 1
			}
, 			{
				"name" : "vizzie-global.js",
				"bootpath" : "C74:/packages/Vizzie/code",
				"type" : "TEXT",
				"implicit" : 1
			}
, 			{
				"name" : "vz.patternizr.maxpat",
				"bootpath" : "C74:/packages/Vizzie/patchers",
				"type" : "JSON",
				"implicit" : 1
			}
, 			{
				"name" : "data-handler.maxpat",
				"bootpath" : "C74:/packages/Vizzie/patchers",
				"type" : "JSON",
				"implicit" : 1
			}
, 			{
				"name" : "vzgl-object.maxpat",
				"bootpath" : "C74:/packages/Vizzie/patchers",
				"type" : "JSON",
				"implicit" : 1
			}
, 			{
				"name" : "data-handler-L.maxpat",
				"bootpath" : "C74:/packages/Vizzie/patchers",
				"type" : "JSON",
				"implicit" : 1
			}
, 			{
				"name" : "vz.wandr.maxpat",
				"bootpath" : "C74:/packages/Vizzie/patchers",
				"type" : "JSON",
				"implicit" : 1
			}
, 			{
				"name" : "vz.mappr.maxpat",
				"bootpath" : "C74:/packages/Vizzie/patchers",
				"type" : "JSON",
				"implicit" : 1
			}
, 			{
				"name" : "video-handler.maxpat",
				"bootpath" : "C74:/packages/Vizzie/patchers",
				"type" : "JSON",
				"implicit" : 1
			}
, 			{
				"name" : "vz.chromakeyr.maxpat",
				"bootpath" : "C74:/packages/Vizzie/patchers",
				"type" : "JSON",
				"implicit" : 1
			}
, 			{
				"name" : "vzgl-pwindow.maxpat",
				"bootpath" : "C74:/packages/Vizzie/patchers",
				"type" : "JSON",
				"implicit" : 1
			}
, 			{
				"name" : "2input-router.maxpat",
				"bootpath" : "C74:/packages/Vizzie/patchers",
				"type" : "JSON",
				"implicit" : 1
			}
, 			{
				"name" : "vzgl-routemat.maxpat",
				"bootpath" : "C74:/packages/Vizzie/patchers",
				"type" : "JSON",
				"implicit" : 1
			}
, 			{
				"name" : "vzgl-routegl.maxpat",
				"bootpath" : "C74:/packages/Vizzie/patchers",
				"type" : "JSON",
				"implicit" : 1
			}
, 			{
				"name" : "vz.scramblr.maxpat",
				"bootpath" : "C74:/packages/Vizzie/patchers",
				"type" : "JSON",
				"implicit" : 1
			}
, 			{
				"name" : "jit.mo.func.mxo",
				"type" : "iLaX"
			}
, 			{
				"name" : "jit.mo.join.mxo",
				"type" : "iLaX"
			}
 ],
		"autosave" : 0
	}

}
